<?xml version="1.0" encoding="UTF-8"?>
<svg id="_레이어_1" data-name="레이어 1" xmlns="http://www.w3.org/2000/svg" version="1.1" viewBox="0 0 273.87 33.63">
  <defs>
    <style>
      .cls-1 {
        fill: #3e3a39;
      }

      .cls-1, .cls-2 {
        stroke-width: 0px;
      }

      .cls-2 {
        fill: #f5c01c;
      }
    </style>
  </defs>
  <g>
    <path class="cls-1" d="M42.38,4.68c0-.62.24-1.1.72-1.42.48-.32,1.1-.49,1.87-.49h8.5c1.51,0,2.95.15,4.3.45,1.36.3,2.55.79,3.58,1.46,1.03.67,1.85,1.55,2.45,2.63.6,1.08.9,2.39.9,3.92v.22c0,1.54-.29,2.84-.86,3.92-.58,1.08-1.36,1.96-2.34,2.63-.98.67-2.14,1.16-3.47,1.48s-2.75.47-4.27.47h-5.11v7.34c0,.48-.08.89-.25,1.24-.17.35-.4.64-.68.86-.29.23-.62.4-.99.5-.37.11-.75.16-1.13.16-.41,0-.8-.05-1.19-.16-.38-.11-.73-.28-1.03-.5-.3-.23-.54-.52-.72-.86-.18-.35-.27-.76-.27-1.24V4.68ZM48.64,7.2v8.64h5.11c1.46,0,2.62-.34,3.46-1.01.84-.67,1.26-1.72,1.26-3.13v-.5c0-1.39-.5-2.41-1.49-3.04-1-.64-2.25-.95-3.76-.95h-4.57Z"/>
    <path class="cls-1" d="M76.58,11.81c1.32,0,2.57.19,3.74.56,1.18.37,2.21.88,3.1,1.53.89.65,1.59,1.42,2.11,2.32.52.9.77,1.87.77,2.9,0,.84-.14,1.51-.41,2.02-.28.5-.64.89-1.08,1.17-.44.28-.95.46-1.53.54-.58.08-1.16.13-1.76.13h-9c.02,1.03.46,1.83,1.31,2.39.85.56,2.03.85,3.55.85.96,0,1.86-.14,2.7-.41.84-.28,1.54-.51,2.09-.7.6-.19,1.19-.28,1.76-.25.58.02,1.04.32,1.4.9.29.46.4.95.32,1.49-.07.54-.41.98-1.01,1.31-.7.46-1.69.86-2.99,1.21-1.3.35-2.77.52-4.43.52s-3.06-.18-4.36-.54c-1.3-.36-2.41-.87-3.33-1.53-.92-.66-1.65-1.45-2.18-2.36-.53-.91-.83-1.92-.9-3.02-.07-1.25-.07-2.47,0-3.67.02-.98.29-1.92.79-2.81.5-.89,1.2-1.67,2.09-2.34.89-.67,1.94-1.21,3.17-1.6s2.58-.59,4.07-.59ZM79.46,19.12c.41,0,.69-.02.85-.07.16-.05.23-.18.23-.4,0-.77-.38-1.41-1.13-1.93-.76-.52-1.71-.77-2.86-.77-.55,0-1.07.06-1.55.18-.48.12-.91.29-1.28.52-.37.23-.67.5-.88.83-.22.32-.32.68-.32,1.06v.58h6.95Z"/>
    <path class="cls-1" d="M92.7,5.87c0-.94.31-1.62.94-2.05s1.33-.65,2.12-.65,1.51.22,2.14.65c.64.43.95,1.12.95,2.05v6.01h3.28c.5,0,.91.06,1.22.18s.56.28.76.49c.19.2.32.44.4.72s.11.57.11.88c0,.24-.03.48-.09.72-.06.24-.18.46-.36.67-.18.2-.43.37-.76.5-.32.13-.75.2-1.28.2h-3.28v11.09c0,.96-.32,1.66-.95,2.09-.64.43-1.35.65-2.14.65s-1.5-.22-2.12-.65c-.62-.43-.94-1.13-.94-2.09v-11.09h-3.6c-.96,0-1.61-.22-1.96-.67-.35-.44-.52-.94-.52-1.49,0-.29.04-.56.11-.83.07-.26.2-.5.38-.7.18-.2.43-.37.76-.49.32-.12.74-.18,1.24-.18h3.6v-6.01Z"/>
    <path class="cls-1" d="M116.21,1.98c.65,0,1.15.07,1.51.2.36.13.64.31.83.54.19.23.31.51.36.85.05.34.07.72.07,1.15v3.92c0,.72-.04,1.48-.11,2.27-.07.79-.22,1.6-.45,2.43-.23.83-.57,1.64-1.03,2.43s-1.07,1.55-1.84,2.27c-.6.55-1.18.83-1.75.85-.56.01-1.11-.13-1.64-.41-.29-.14-.53-.35-.72-.61-.19-.26-.32-.56-.4-.88-.07-.32-.07-.66,0-1.01.07-.35.23-.68.47-.99.24-.34.46-.65.67-.94s.38-.58.52-.86h-4.61c-.67,0-1.21-.05-1.62-.16-.41-.11-.72-.26-.94-.47-.22-.2-.35-.45-.41-.74-.06-.29-.09-.61-.09-.97,0-.29.04-.57.11-.85.07-.28.22-.52.45-.74s.55-.38.95-.5.95-.18,1.62-.18h5.33v-1.91h-5c-.67,0-1.21-.06-1.62-.18s-.72-.28-.94-.49c-.22-.2-.35-.45-.41-.74-.06-.29-.09-.61-.09-.97,0-.29.04-.57.11-.85s.22-.52.45-.74c.23-.22.55-.39.95-.52.41-.13.95-.2,1.62-.2h7.63ZM109.95,32.83c-.67,0-1.2-.07-1.58-.2s-.68-.31-.88-.54-.33-.49-.38-.79c-.05-.3-.07-.63-.07-.99v-6.95c0-.91.23-1.66.7-2.25.47-.59,1.33-.88,2.57-.88h22.21c.67,0,1.2.07,1.58.2.38.13.68.31.88.54.2.23.33.49.38.79.05.3.07.63.07.99v6.95c0,1.2-.31,2.02-.94,2.47-.62.44-1.4.67-2.34.67h-22.21ZM112.86,25.09v2.88h16.74v-2.88h-16.74ZM130.32,12.89h-3.24v2.92c0,1.25-.22,2.09-.67,2.52-.44.43-1.05.65-1.82.65s-1.39-.22-1.85-.65c-.47-.43-.7-1.27-.7-2.52V4.68c0-1.2.23-2.02.68-2.47.46-.44,1.07-.67,1.84-.67s1.35.22,1.82.67c.47.44.7,1.27.7,2.47v3.1h3.24v-3.1c0-1.2.23-2.02.68-2.47.46-.44,1.07-.67,1.84-.67s1.35.22,1.82.67c.47.44.7,1.27.7,2.47v11.16c0,1.25-.22,2.09-.67,2.52s-1.05.65-1.82.65-1.39-.22-1.85-.65c-.47-.43-.7-1.27-.7-2.52v-2.95Z"/>
    <path class="cls-1" d="M158.44,13.25v2.12h10.22c.6,0,1.08.07,1.44.22.36.14.64.32.83.54.19.22.32.46.38.74.06.28.09.55.09.81,0,.34-.03.64-.09.92-.06.28-.19.52-.38.74-.19.22-.47.38-.83.5-.36.12-.84.18-1.44.18h-26.17c-.6,0-1.08-.06-1.44-.18-.36-.12-.64-.29-.83-.5-.19-.22-.32-.46-.38-.74-.06-.28-.09-.58-.09-.92,0-.26.03-.53.09-.81.06-.28.19-.52.38-.74.19-.22.47-.4.83-.54.36-.14.84-.22,1.44-.22h10.12v-2.12h-7.31c-.67,0-1.2-.07-1.58-.2-.38-.13-.67-.32-.85-.56-.18-.24-.29-.51-.34-.81-.05-.3-.07-.63-.07-.99v-6.12c0-.36.02-.7.07-1.01.05-.31.16-.59.34-.85.18-.25.46-.45.85-.59.38-.14.91-.22,1.58-.22h20.05c.6,0,1.08.07,1.44.2.36.13.64.31.83.52s.32.47.38.76.09.59.09.9c0,.26-.03.53-.09.79-.06.26-.19.5-.38.72s-.47.4-.83.54c-.36.14-.84.22-1.44.22h-17.06v1.98h17.06c.6,0,1.08.07,1.44.22.36.14.64.34.83.58.19.24.32.5.38.77s.09.53.09.77c0,.31-.03.61-.09.9s-.19.54-.38.76c-.19.22-.47.39-.83.52-.36.13-.84.2-1.44.2h-6.91ZM147.71,32.87c-1.13-.02-2.09-.19-2.88-.49-.79-.3-1.43-.7-1.91-1.19-.48-.49-.83-1.07-1.04-1.75-.22-.67-.32-1.42-.32-2.23s.1-1.57.29-2.25c.19-.68.52-1.27.99-1.76.47-.49,1.1-.88,1.91-1.17.8-.29,1.82-.44,3.04-.47h15.41c1.22,0,2.24.14,3.04.43.8.29,1.44.68,1.91,1.19.47.5.8,1.1.99,1.78.19.68.29,1.43.29,2.25,0,1.63-.46,2.96-1.39,4-.92,1.03-2.51,1.58-4.77,1.66h-15.55ZM161.65,28.51c.7,0,1.2-.09,1.51-.27.31-.18.47-.52.47-1.03s-.16-.85-.47-1.03c-.31-.18-.82-.27-1.51-.27h-12.31c-.7,0-1.2.09-1.51.27-.31.18-.47.52-.47,1.03s.16.85.47,1.03c.31.18.82.27,1.51.27h12.31Z"/>
    <path class="cls-1" d="M182.34,27.76v1.51h18.22c.67,0,1.22.05,1.66.14.43.1.77.23,1.01.4.24.17.4.37.49.61.08.24.13.5.13.79,0,.34-.04.62-.13.86s-.25.44-.49.61c-.24.17-.58.29-1.01.36-.43.07-.98.11-1.66.11h-21.13c-.67,0-1.2-.07-1.58-.2-.38-.13-.68-.31-.88-.54-.2-.23-.33-.49-.38-.79-.05-.3-.07-.62-.07-.95v-4.79c0-.24.03-.47.09-.7.06-.23.19-.43.38-.61.19-.18.47-.32.83-.43.36-.11.84-.16,1.44-.16h17.96v-1.3h-18.29c-1.01,0-1.68-.17-2.02-.52-.34-.35-.5-.82-.5-1.42,0-.48.17-.92.5-1.31.34-.4,1.01-.59,2.02-.59h7.96v-1.8h-10.55c-.84,0-1.45-.16-1.82-.47-.37-.31-.56-.79-.56-1.44,0-.53.19-.97.56-1.33.37-.36.98-.54,1.82-.54h26.89c.84,0,1.45.18,1.82.54.37.36.56.8.56,1.33,0,.65-.19,1.13-.56,1.44s-.98.47-1.82.47h-10.51v1.8h7.63c.58,0,1.04.06,1.4.18.36.12.64.28.83.47.19.19.32.4.38.63.06.23.09.46.09.7v5.08c0,.58-.17,1.03-.5,1.37s-1.08.5-2.23.5h-17.96ZM179.21,11.74c-.65,0-1.15-.08-1.51-.23-.36-.16-.63-.36-.81-.61-.18-.25-.29-.54-.34-.86-.05-.32-.07-.65-.07-.99v-4c0-1.2.29-2.02.88-2.47.59-.44,1.27-.67,2.03-.67h20.77c.38,0,.75.05,1.1.14.35.1.65.26.92.5.26.24.48.56.65.97.17.41.25.91.25,1.51v4c0,.34-.02.67-.07.99-.05.32-.16.61-.34.86-.18.25-.46.46-.83.61-.37.16-.87.23-1.49.23h-21.13ZM182.31,7.74h14.94v-1.84h-14.94v1.84Z"/>
    <path class="cls-1" d="M214.92,6.01h3.82v-.97c0-1.2.29-2.02.88-2.47.59-.44,1.27-.67,2.03-.67.38,0,.74.05,1.06.14.32.1.61.26.86.5s.45.56.59.97c.14.41.22.91.22,1.51v10.55c0,.36-.02.69-.07.99-.05.3-.17.56-.38.79s-.5.41-.88.54c-.38.13-.91.2-1.58.2h-9.29c-.67,0-1.2-.07-1.58-.2-.38-.13-.68-.31-.88-.54s-.33-.49-.38-.79c-.05-.3-.07-.63-.07-.99V5.04c0-1.2.26-2.02.79-2.47.53-.44,1.18-.67,1.94-.67.38,0,.75.05,1.1.14.35.1.65.26.92.5s.48.56.65.97c.17.41.25.91.25,1.51v.97ZM216.44,32.87c-1.13-.02-2.09-.2-2.88-.54-.79-.34-1.43-.79-1.91-1.35-.48-.56-.83-1.21-1.04-1.94s-.32-1.52-.32-2.36.1-1.63.29-2.38c.19-.74.52-1.4.99-1.96.47-.56,1.1-1.01,1.91-1.33.8-.32,1.82-.5,3.04-.52h15.41c1.22,0,2.24.16,3.04.49.8.32,1.44.77,1.91,1.33.47.56.8,1.22.99,1.98.19.76.29,1.55.29,2.39s-.11,1.63-.32,2.36-.57,1.38-1.06,1.94c-.49.56-1.13,1.01-1.91,1.35-.78.34-1.73.52-2.86.54h-15.55ZM218.74,10.62h-3.82v2.88h3.82v-2.88ZM230.37,28.04c.7-.05,1.2-.15,1.51-.31.31-.16.47-.51.47-1.06s-.16-.94-.47-1.1c-.31-.16-.82-.26-1.51-.31h-12.31c-.7.05-1.2.15-1.51.31-.31.16-.47.52-.47,1.1s.16.91.47,1.06.82.26,1.51.31h12.31ZM234.94,19.22c-.7,0-1.33-.19-1.91-.56s-.91-1.09-1.01-2.14h-2.52c-.67,0-1.22-.06-1.66-.18-.43-.12-.77-.29-1.01-.5-.24-.22-.4-.47-.49-.77-.08-.3-.13-.63-.13-.99,0-.29.04-.58.13-.86s.25-.55.49-.77c.24-.23.58-.41,1.01-.54.43-.13.98-.2,1.66-.2h2.52v-2.38h-2.52c-.67,0-1.22-.06-1.66-.18-.43-.12-.77-.29-1.01-.5-.24-.22-.4-.47-.49-.77-.08-.3-.13-.63-.13-.99,0-.29.04-.58.13-.86.08-.29.25-.55.49-.77.24-.23.58-.41,1.01-.54.43-.13.98-.2,1.66-.2h2.52c.02-.58.12-1.05.29-1.42s.38-.67.65-.9c.26-.23.57-.39.92-.49.35-.1.7-.14,1.06-.14.38,0,.75.05,1.1.14.35.1.65.26.92.5.26.24.48.56.65.97.17.41.25.91.25,1.51v11.38c0,.62-.08,1.14-.25,1.55-.17.41-.38.73-.65.97-.26.24-.57.41-.92.5-.35.1-.71.14-1.1.14Z"/>
    <path class="cls-1" d="M242.39,19.01c0-.36.04-.68.13-.97.08-.29.25-.53.49-.74.24-.2.58-.36,1.01-.47.43-.11.98-.16,1.66-.16h14.11c.67,0,1.22.05,1.66.16.43.11.77.26,1.01.47.24.2.4.45.49.74.08.29.13.61.13.97,0,.29-.04.57-.13.85s-.25.52-.49.74c-.24.22-.58.38-1.01.5-.43.12-.98.18-1.66.18h-3.85v1.3c0,.6-.08,1.09-.25,1.48-.17.38-.38.68-.65.9-.26.22-.57.36-.92.43-.35.07-.71.11-1.1.11s-.75-.04-1.1-.11c-.35-.07-.66-.22-.94-.43-.28-.22-.49-.52-.65-.9-.16-.38-.23-.88-.23-1.48v-1.3h-4.43c-.67,0-1.22-.06-1.66-.18-.43-.12-.77-.29-1.01-.5-.24-.22-.4-.46-.49-.74-.08-.28-.13-.56-.13-.85ZM243.36,8.64c0-1.34.18-2.45.54-3.33.36-.88.89-1.58,1.6-2.11.71-.53,1.59-.89,2.65-1.1,1.06-.2,2.29-.31,3.71-.31s2.62.1,3.69.31c1.07.2,1.96.57,2.66,1.1.71.53,1.24,1.23,1.6,2.11.36.88.54,1.99.54,3.33,0,1.44-.18,2.6-.54,3.49-.36.89-.89,1.58-1.6,2.07-.71.49-1.6.82-2.66.99-1.07.17-2.3.25-3.69.25s-2.65-.1-3.71-.31c-1.06-.2-1.94-.56-2.65-1.08-.71-.52-1.24-1.21-1.6-2.09-.36-.88-.54-1.99-.54-3.33ZM249.81,28.01h19.12c.67,0,1.22.07,1.66.2.43.13.77.31,1.01.54.24.23.4.49.49.77s.13.58.13.86c0,.36-.04.69-.13.99-.08.3-.25.56-.49.77-.24.22-.58.38-1.01.5-.43.12-.98.18-1.66.18h-22.03c-.67,0-1.2-.07-1.58-.2s-.68-.31-.88-.54c-.2-.23-.33-.49-.38-.79-.05-.3-.07-.63-.07-.99v-3.96c0-.6.08-1.1.23-1.49.16-.4.37-.71.65-.94.28-.23.59-.38.94-.47.35-.08.71-.13,1.1-.13s.75.04,1.1.13.65.24.92.47c.26.23.48.54.65.94s.25.89.25,1.49v1.66ZM249.23,8.64c0,1.01.2,1.68.59,2.02.4.34,1.07.5,2.03.5s1.64-.17,2.03-.5c.4-.34.59-1.01.59-2.02s-.2-1.68-.59-2.02c-.4-.34-1.07-.5-2.03-.5s-1.64.17-2.03.5c-.4.34-.59,1.01-.59,2.02ZM265.97,14.33h-1.84c-.67,0-1.22-.07-1.66-.22-.43-.14-.77-.33-1.01-.56-.24-.23-.4-.49-.49-.77s-.13-.58-.13-.86c0-.36.04-.69.13-.99.08-.3.25-.56.49-.77.24-.22.58-.39,1.01-.52.43-.13.98-.2,1.66-.2h1.84v-4.75c0-1.2.29-2.02.88-2.47.59-.44,1.27-.67,2.03-.67.38,0,.75.05,1.1.14.35.1.65.26.92.5.26.24.48.56.65.97.17.41.25.91.25,1.51v17.1c0,.62-.08,1.14-.25,1.55s-.38.73-.65.97c-.26.24-.57.41-.92.5-.35.1-.71.14-1.1.14s-.75-.05-1.1-.14c-.35-.1-.66-.26-.94-.5-.28-.24-.49-.56-.65-.97-.16-.41-.23-.92-.23-1.55v-7.45Z"/>
  </g>
  <path class="cls-2" d="M4.75,15.63c-1.06,0-1.95-.36-2.68-1.09-.73-.73-1.09-1.62-1.09-2.68s.36-1.95,1.09-2.68c.73-.73,1.62-1.09,2.68-1.09s1.95.36,2.68,1.09c.73.73,1.09,1.62,1.09,2.68s-.36,1.95-1.09,2.68c-.73.73-1.62,1.09-2.68,1.09ZM11.54,9.59c-1.06,0-1.95-.36-2.68-1.09s-1.09-1.62-1.09-2.68.36-1.95,1.09-2.68,1.62-1.09,2.68-1.09,1.95.36,2.68,1.09,1.09,1.62,1.09,2.68-.36,1.95-1.09,2.68-1.62,1.09-2.68,1.09ZM20.59,9.59c-1.06,0-1.95-.36-2.68-1.09-.73-.73-1.09-1.62-1.09-2.68s.36-1.95,1.09-2.68c.73-.73,1.62-1.09,2.68-1.09s1.95.36,2.68,1.09,1.09,1.62,1.09,2.68-.36,1.95-1.09,2.68-1.62,1.09-2.68,1.09ZM27.38,15.63c-1.06,0-1.95-.36-2.68-1.09-.73-.73-1.09-1.62-1.09-2.68s.36-1.95,1.09-2.68,1.62-1.09,2.68-1.09,1.95.36,2.68,1.09,1.09,1.62,1.09,2.68-.36,1.95-1.09,2.68c-.73.73-1.62,1.09-2.68,1.09ZM7.99,30.72c-1.13,0-2.08-.43-2.85-1.3s-1.15-1.89-1.15-3.07c0-1.31.45-2.45,1.34-3.43s1.78-1.95,2.66-2.9c.73-.78,1.36-1.63,1.89-2.55s1.16-1.78,1.89-2.58c.55-.65,1.19-1.19,1.92-1.62s1.52-.64,2.38-.64,1.65.2,2.38.6,1.37.93,1.92,1.58c.7.8,1.33,1.67,1.87,2.6s1.18,1.8,1.91,2.6c.88.96,1.77,1.92,2.66,2.9s1.34,2.13,1.34,3.43c0,1.18-.38,2.21-1.15,3.07s-1.72,1.3-2.85,1.3c-1.36,0-2.7-.11-4.04-.34s-2.68-.34-4.04-.34-2.7.11-4.04.34-2.68.34-4.04.34Z"/>
</svg>